<svg width="24" height="24" viewBox="0 0 24 24" fill="none" xmlns="http://www.w3.org/2000/svg">
<path d="M12.0004 20C11.7171 20 11.4797 19.904 11.2884 19.712C11.0964 19.5207 11.0004 19.2834 11.0004 19V7.82505L6.12539 12.7C5.92539 12.9 5.68772 13 5.41239 13C5.13772 13 4.90039 12.9 4.70039 12.7C4.50039 12.5 4.40039 12.2667 4.40039 12C4.40039 11.7334 4.50039 11.5 4.70039 11.3L11.3004 4.70005C11.4004 4.60005 11.5087 4.52905 11.6254 4.48705C11.7421 4.44572 11.8671 4.42505 12.0004 4.42505C12.1337 4.42505 12.2631 4.44572 12.3884 4.48705C12.5131 4.52905 12.6171 4.60005 12.7004 4.70005L19.3004 11.3C19.5004 11.5 19.6004 11.7334 19.6004 12C19.6004 12.2667 19.5004 12.5 19.3004 12.7C19.1004 12.9 18.8627 13 18.5874 13C18.3127 13 18.0754 12.9 17.8754 12.7L13.0004 7.82505V19C13.0004 19.2834 12.9047 19.5207 12.7134 19.712C12.5214 19.904 12.2837 20 12.0004 20Z" fill="white"/>
</svg>
