<svg width="16" height="17" viewBox="0 0 16 17" fill="none" xmlns="http://www.w3.org/2000/svg">
<path d="M9.66667 12.0126C9.2 12.0126 8.80556 11.8515 8.48333 11.5293C8.16111 11.2071 8 10.8126 8 10.3459C8 9.87928 8.16111 9.48484 8.48333 9.16261C8.80556 8.84039 9.2 8.67928 9.66667 8.67928C10.1333 8.67928 10.5278 8.84039 10.85 9.16261C11.1722 9.48484 11.3333 9.87928 11.3333 10.3459C11.3333 10.8126 11.1722 11.2071 10.85 11.5293C10.5278 11.8515 10.1333 12.0126 9.66667 12.0126ZM3.33333 14.6793C2.96667 14.6793 2.65267 14.5488 2.39133 14.2879C2.13044 14.0266 2 13.7126 2 13.3459V4.01261C2 3.64595 2.13044 3.33217 2.39133 3.07128C2.65267 2.80995 2.96667 2.67928 3.33333 2.67928H4V2.01261C4 1.82373 4.06378 1.66528 4.19133 1.53728C4.31933 1.40972 4.47778 1.34595 4.66667 1.34595C4.85556 1.34595 5.014 1.40972 5.142 1.53728C5.26956 1.66528 5.33333 1.82373 5.33333 2.01261V2.67928H10.6667V2.01261C10.6667 1.82373 10.7307 1.66528 10.8587 1.53728C10.9862 1.40972 11.1444 1.34595 11.3333 1.34595C11.5222 1.34595 11.6804 1.40972 11.808 1.53728C11.936 1.66528 12 1.82373 12 2.01261V2.67928H12.6667C13.0333 2.67928 13.3473 2.80995 13.6087 3.07128C13.8696 3.33217 14 3.64595 14 4.01261V13.3459C14 13.7126 13.8696 14.0266 13.6087 14.2879C13.3473 14.5488 13.0333 14.6793 12.6667 14.6793H3.33333ZM3.33333 13.3459H12.6667V6.67928H3.33333V13.3459ZM3.33333 5.34595H12.6667V4.01261H3.33333V5.34595ZM3.33333 5.34595V4.01261V5.34595Z" fill="#1F2122"/>
</svg>
