<svg width="24" height="25" viewBox="0 0 24 25" fill="none" xmlns="http://www.w3.org/2000/svg">
<path d="M11.9997 15.6292C11.8664 15.6292 11.7414 15.6082 11.6247 15.5662C11.508 15.5248 11.3997 15.4542 11.2997 15.3542L6.6747 10.7292C6.49136 10.5458 6.40403 10.3165 6.4127 10.0412C6.4207 9.76651 6.51636 9.53751 6.6997 9.35418C6.88303 9.17084 7.11636 9.07918 7.3997 9.07918C7.68303 9.07918 7.91636 9.17084 8.0997 9.35418L11.9997 13.2542L15.9247 9.32918C16.108 9.14584 16.3374 9.05818 16.6127 9.06618C16.8874 9.07484 17.1164 9.17084 17.2997 9.35418C17.483 9.53751 17.5747 9.77084 17.5747 10.0542C17.5747 10.3375 17.483 10.5708 17.2997 10.7542L12.6997 15.3542C12.5997 15.4542 12.4914 15.5248 12.3747 15.5662C12.258 15.6082 12.133 15.6292 11.9997 15.6292Z" fill="#1F2122"/>
</svg>
