<svg width="20" height="21" viewBox="0 0 20 21" fill="none" xmlns="http://www.w3.org/2000/svg">
<path d="M10 15.6792C10.2833 15.6792 10.521 15.5832 10.713 15.3912C10.9043 15.1999 11 14.9625 11 14.6792V10.6542C11 10.3709 10.9043 10.1375 10.713 9.9542C10.521 9.77087 10.2833 9.6792 10 9.6792C9.71667 9.6792 9.47933 9.77487 9.288 9.9662C9.096 10.1582 9 10.3959 9 10.6792V14.7042C9 14.9875 9.096 15.2209 9.288 15.4042C9.47933 15.5875 9.71667 15.6792 10 15.6792ZM10 7.6792C10.2833 7.6792 10.521 7.5832 10.713 7.3912C10.9043 7.19987 11 6.96253 11 6.6792C11 6.39587 10.9043 6.1582 10.713 5.9662C10.521 5.77487 10.2833 5.6792 10 5.6792C9.71667 5.6792 9.47933 5.77487 9.288 5.9662C9.096 6.1582 9 6.39587 9 6.6792C9 6.96253 9.096 7.19987 9.288 7.3912C9.47933 7.5832 9.71667 7.6792 10 7.6792ZM10 20.6792C8.61667 20.6792 7.31667 20.4165 6.1 19.8912C4.88333 19.3665 3.825 18.6542 2.925 17.7542C2.025 16.8542 1.31267 15.7959 0.788 14.5792C0.262667 13.3625 0 12.0625 0 10.6792C0 9.29587 0.262667 7.99587 0.788 6.7792C1.31267 5.56253 2.025 4.5042 2.925 3.6042C3.825 2.7042 4.88333 1.99153 6.1 1.4662C7.31667 0.941532 8.61667 0.679199 10 0.679199C11.3833 0.679199 12.6833 0.941532 13.9 1.4662C15.1167 1.99153 16.175 2.7042 17.075 3.6042C17.975 4.5042 18.6873 5.56253 19.212 6.7792C19.7373 7.99587 20 9.29587 20 10.6792C20 12.0625 19.7373 13.3625 19.212 14.5792C18.6873 15.7959 17.975 16.8542 17.075 17.7542C16.175 18.6542 15.1167 19.3665 13.9 19.8912C12.6833 20.4165 11.3833 20.6792 10 20.6792ZM10 18.6792C12.2167 18.6792 14.1043 17.9002 15.663 16.3422C17.221 14.7835 18 12.8959 18 10.6792C18 8.46253 17.221 6.57487 15.663 5.0162C14.1043 3.4582 12.2167 2.6792 10 2.6792C7.78333 2.6792 5.896 3.4582 4.338 5.0162C2.77933 6.57487 2 8.46253 2 10.6792C2 12.8959 2.77933 14.7835 4.338 16.3422C5.896 17.9002 7.78333 18.6792 10 18.6792Z" fill="#66696D"/>
</svg>
