<svg width="12" height="10" viewBox="0 0 12 10" fill="none" xmlns="http://www.w3.org/2000/svg">
<path d="M1 6C0.722222 6 0.486222 5.90267 0.292 5.708C0.0973333 5.51378 0 5.27778 0 5C0 4.72222 0.0973333 4.48622 0.292 4.292C0.486222 4.09733 0.722222 4 1 4C1.27778 4 1.51378 4.09733 1.708 4.292C1.90267 4.48622 2 4.72222 2 5C2 5.27778 1.90267 5.51378 1.708 5.708C1.51378 5.90267 1.27778 6 1 6ZM1 2C0.722222 2 0.486222 1.90267 0.292 1.708C0.0973333 1.51378 0 1.27778 0 1C0 0.722222 0.0973333 0.486222 0.292 0.292C0.486222 0.0973335 0.722222 0 1 0C1.27778 0 1.51378 0.0973335 1.708 0.292C1.90267 0.486222 2 0.722222 2 1C2 1.27778 1.90267 1.51378 1.708 1.708C1.51378 1.90267 1.27778 2 1 2ZM1 10C0.722222 10 0.486222 9.90267 0.292 9.708C0.0973333 9.51378 0 9.27778 0 9C0 8.72222 0.0973333 8.48622 0.292 8.292C0.486222 8.09733 0.722222 8 1 8C1.27778 8 1.51378 8.09733 1.708 8.292C1.90267 8.48622 2 8.72222 2 9C2 9.27778 1.90267 9.51378 1.708 9.708C1.51378 9.90267 1.27778 10 1 10ZM4 9.66667C3.81111 9.66667 3.65289 9.60267 3.52533 9.47467C3.39733 9.34711 3.33333 9.18889 3.33333 9C3.33333 8.81111 3.39733 8.65289 3.52533 8.52533C3.65289 8.39733 3.81111 8.33333 4 8.33333H11.3333C11.5222 8.33333 11.6804 8.39733 11.808 8.52533C11.936 8.65289 12 8.81111 12 9C12 9.18889 11.936 9.34711 11.808 9.47467C11.6804 9.60267 11.5222 9.66667 11.3333 9.66667H4ZM4 5.66667C3.81111 5.66667 3.65289 5.60267 3.52533 5.47467C3.39733 5.34711 3.33333 5.18889 3.33333 5C3.33333 4.81111 3.39733 4.65267 3.52533 4.52467C3.65289 4.39711 3.81111 4.33333 4 4.33333H11.3333C11.5222 4.33333 11.6804 4.39711 11.808 4.52467C11.936 4.65267 12 4.81111 12 5C12 5.18889 11.936 5.34711 11.808 5.47467C11.6804 5.60267 11.5222 5.66667 11.3333 5.66667H4ZM4 1.66667C3.81111 1.66667 3.65289 1.60289 3.52533 1.47533C3.39733 1.34733 3.33333 1.18889 3.33333 1C3.33333 0.811111 3.39733 0.652667 3.52533 0.524667C3.65289 0.397111 3.81111 0.333333 4 0.333333H11.3333C11.5222 0.333333 11.6804 0.397111 11.808 0.524667C11.936 0.652667 12 0.811111 12 1C12 1.18889 11.936 1.34733 11.808 1.47533C11.6804 1.60289 11.5222 1.66667 11.3333 1.66667H4Z" fill="#66696D"/>
</svg>
