<svg width="25" height="24" viewBox="0 0 25 24" fill="none" xmlns="http://www.w3.org/2000/svg">
<path d="M19.1949 8.87667L18.411 9.66066C18.9673 10.7987 19.2708 12.0885 19.2708 13.4541C19.2708 18.2592 15.3762 22.1538 10.5711 22.1538C5.81665 22.1285 1.89673 18.2339 1.89673 13.4288C1.89673 8.62378 5.79136 4.72915 10.5964 4.72915C11.9621 4.72915 13.2266 5.03263 14.3646 5.589L15.1486 4.80502V3.84401C13.7576 3.18648 12.215 2.80713 10.5964 2.80713C4.75448 2.80713 0 7.56161 0 13.4035C0 19.2455 4.75448 24 10.5964 24C16.4384 24 21.1928 19.2455 21.1928 13.4035C21.1928 11.785 20.8135 10.2423 20.156 8.85139H19.1949V8.87667Z" fill="black"/>
<path d="M10.5964 8.64907C10.824 8.64907 11.0516 8.67436 11.2792 8.69965L12.8472 7.13169C12.1391 6.8535 11.4057 6.72705 10.5964 6.72705C6.90412 6.75234 3.91992 9.73653 3.91992 13.4288C3.91992 17.1212 6.90412 20.1306 10.6217 20.1306C14.314 20.1306 17.3235 17.1212 17.3235 13.4288C17.3235 12.6449 17.1718 11.8862 16.9189 11.1781L15.3509 12.746C15.4015 12.9736 15.4015 13.2012 15.4015 13.4288C15.4015 16.059 13.2519 18.2086 10.6217 18.2086C7.96629 18.2086 5.81666 16.059 5.81666 13.4288C5.81666 10.7987 7.96629 8.64907 10.5964 8.64907Z" fill="black"/>
<path d="M23.9746 3.59115C23.8735 3.31296 23.5953 3.16122 23.3171 3.16122H20.8893V0.708114C20.8893 0.429926 20.7122 0.151739 20.4593 0.0505796C20.1812 -0.0505795 19.8777 -1.50739e-08 19.6754 0.202318L17.2728 2.60485C17.1464 2.7313 17.0705 2.90832 17.0705 3.11064V5.61433L11.7597 10.8999C11.4056 10.7229 11.001 10.6217 10.5963 10.6217C9.05365 10.6217 7.81445 11.8609 7.81445 13.4036C7.81445 14.9463 9.05365 16.1855 10.5963 16.1855C12.139 16.1855 13.3782 14.9463 13.3782 13.4036C13.3782 12.9737 13.277 12.5943 13.1 12.2403L18.4109 6.95469H20.9146C21.0916 6.95469 21.2939 6.87882 21.4204 6.75237L23.8229 4.34984C24.0252 4.14752 24.0758 3.84405 23.9746 3.59115Z" fill="black"/>
</svg>
