<svg width="22" height="22" viewBox="0 0 22 22" fill="none" xmlns="http://www.w3.org/2000/svg">
<path fill-rule="evenodd" clip-rule="evenodd" d="M11 22C17.075 22 22 17.075 22 11C22 4.925 17.075 0 11 0C4.925 0 0 4.925 0 11C0 17.075 4.925 22 11 22ZM10.289 5.5C10.289 5.30109 10.368 5.11032 10.5087 4.96967C10.6493 4.82902 10.8401 4.75 11.039 4.75C11.2379 4.75 11.4287 4.82902 11.5693 4.96967C11.71 5.11032 11.789 5.30109 11.789 5.5V10.289H16.5C16.6989 10.289 16.8897 10.368 17.0303 10.5087C17.171 10.6493 17.25 10.8401 17.25 11.039C17.25 11.2379 17.171 11.4287 17.0303 11.5693C16.8897 11.71 16.6989 11.789 16.5 11.789H11.789V16.5C11.789 16.6989 11.71 16.8897 11.5693 17.0303C11.4287 17.171 11.2379 17.25 11.039 17.25C10.8401 17.25 10.6493 17.171 10.5087 17.0303C10.368 16.8897 10.289 16.6989 10.289 16.5V11.79H5.5C5.30109 11.79 5.11032 11.711 4.96967 11.5703C4.82902 11.4297 4.75 11.2389 4.75 11.04C4.75 10.8411 4.82902 10.6503 4.96967 10.5097C5.11032 10.369 5.30109 10.29 5.5 10.29H10.289V5.5Z" fill="#FA003F"/>
</svg>
